<svg xmlns="http://www.w3.org/2000/svg" version="1.1" xmlns:xlink="http://www.w3.org/1999/xlink" xmlns:svgjs="http://svgjs.com/svgjs" width="512" height="512" x="0" y="0" viewBox="0 0 512 512" style="enable-background:new 0 0 512 512" xml:space="preserve" class=""><g><path d="M256 259.435c-54.244 0-98.216 6.765-98.216 15.11 0 8.345 43.974 17.171 98.216 17.171 54.244 0 98.216-8.826 98.216-17.171.001-8.345-43.972-15.11-98.216-15.11z" style="" fill="#dddddd" data-original="#dddddd" class=""></path><path d="M204.141 261.712c-67.131 6.435-57.344 21.204 4.788 27.675-28.384-7.875-34.232-19.513-4.788-27.675zM86.497 77.767H53.502c-6.8 0-12.363 5.563-12.363 12.363v48.765c0 6.8 5.563 12.363 12.363 12.363h31.922a115.457 115.457 0 0 1 1.073-73.491z" style="" fill="#bfc0c1" data-original="#bfc0c1" class=""></path><path d="M62.376 138.895V90.13c0-6.8 5.563-12.363 12.363-12.363H53.502c-6.8 0-12.363 5.563-12.363 12.363v48.765c0 6.8 5.563 12.363 12.363 12.363h21.236c-6.799 0-12.362-5.563-12.362-12.363z" style="" fill="#989da0" data-original="#989da0" class=""></path><path d="M458.498 77.767h-32.995a115.461 115.461 0 0 1 1.073 73.491h31.922c6.8 0 12.363-5.563 12.363-12.363V90.13c0-6.799-5.564-12.363-12.363-12.363z" style="" fill="#bfc0c1" data-original="#bfc0c1" class=""></path><path d="M450.242 77.767h-24.739a115.461 115.461 0 0 1 1.073 73.491h24.739a115.457 115.457 0 0 0-1.073-73.491z" style="" fill="#989da0" data-original="#989da0" class=""></path><path d="M434.116 116.106C434.116 52.248 381.868 0 318.01 0H193.99C130.176 0 77.885 52.204 77.885 116.106c0 63.858 52.248 116.106 116.106 116.106h124.021c63.812-.001 116.104-52.205 116.104-116.106z" style="" fill="#dddddd" data-original="#dddddd" class=""></path><path d="M99.121 116.106C99.121 52.248 151.368 0 215.226 0H193.99C130.238 0 77.885 52.142 77.885 116.106c0 63.858 52.248 116.106 116.106 116.106h21.236c-63.859-.001-116.106-52.249-116.106-116.106z" style="" fill="#bfc0c1" data-original="#bfc0c1" class=""></path><path d="M312.863 34.713H199.136c-44.766 0-81.392 36.627-81.392 81.392 0 44.766 36.627 81.392 81.392 81.392h113.727c44.766 0 81.392-36.626 81.392-81.392 0-44.765-36.626-81.392-81.392-81.392z" style="" fill="#585a60" data-original="#585a60" class=""></path><path d="M139.287 116.106c0-44.766 36.627-81.392 81.392-81.392H198.83c-44.766 0-81.392 36.626-81.392 81.392s36.626 81.392 81.392 81.392h21.849c-44.766 0-81.392-36.627-81.392-81.392z" style="" fill="#414356" data-original="#414356"></path><circle cx="200.303" cy="114.512" r="28.846" style="" fill="#6edcf9" data-original="#6edcf9"></circle><circle cx="311.694" cy="114.512" r="28.846" style="" fill="#6edcf9" data-original="#6edcf9"></circle><path d="M192.691 114.513c0-12.181 7.553-22.59 18.229-26.82a28.745 28.745 0 0 0-10.618-2.026c-15.932 0-28.846 12.915-28.846 28.846s12.915 28.847 28.846 28.847c3.751 0 7.331-.724 10.618-2.026-10.676-4.23-18.229-14.64-18.229-26.821zM322.317 87.692a28.745 28.745 0 0 0-10.618-2.026c-15.932 0-28.846 12.915-28.846 28.846 0 20.339 20.545 34.317 39.465 26.82-24.257-9.61-24.248-44.032-.001-53.64z" style="" fill="#52c7e2" data-original="#52c7e2"></path><path d="M353.359 272.545c.563.654.858 1.322.858 2 0 8.345-43.974 15.11-98.216 15.11-59.216 0-105.182-8.016-97.358-17.111-26.008 25.343-42.168 60.747-42.168 99.93C116.475 449.532 178.942 512 256 512s139.526-62.468 139.526-139.526c0-39.182-16.159-74.586-42.167-99.929z" style="" fill="#dddddd" data-original="#dddddd" class=""></path><path d="M170.946 282.105c-5.851-1.555-16.245-4.98-12.305-9.561-26.008 25.343-42.168 60.747-42.168 99.93 0 77.058 62.468 139.526 139.526 139.526 3.572 0 7.113-.136 10.618-.399-113.66-8.553-169.234-143.068-95.671-229.496z" style="" fill="#bfc0c1" data-original="#bfc0c1" class=""></path><path d="M212.627 323.215c.532 5.569.702 4.515 34.631 40.694 4.808 4.808 12.676 4.808 17.484 0 33.938-36.188 34.099-35.122 34.632-40.694-27.988 2.501-58.043 2.565-86.747 0z" style="" fill="#f7ac16" data-original="#f7ac16"></path><path d="M236.583 324.733a477.444 477.444 0 0 1-23.956-1.518c.532 5.569.702 4.515 34.631 40.694 4.808 4.808 12.676 4.808 17.484 0l3.111-3.317c-30.766-32.806-30.293-31.462-31.27-35.859z" style="" fill="#ef9614" data-original="#ef9614"></path><path d="M380.147 308.762a140.03 140.03 0 0 0-26.788-36.218c.563.654.858 1.322.858 2 0 8.345-43.974 15.11-98.216 15.11-59.216 0-105.182-8.016-97.358-17.111a140 140 0 0 0-26.788 36.219c67.007 24.43 181.252 24.442 248.292 0z" style="" fill="#989da0" data-original="#989da0" class=""></path><path d="M131.853 308.762c5.706 2.08 11.867 4.016 18.425 5.791a139.726 139.726 0 0 1 20.668-32.448c-5.833-1.549-16.233-4.994-12.305-9.561a140.418 140.418 0 0 0-26.788 36.218z" style="" fill="#838384" data-original="#838384"></path></g></svg>
